<?xml version="1.0" encoding="utf-8"?>
<!-- Generator: Adobe Illustrator 24.0.2, SVG Export Plug-In . SVG Version: 6.00 Build 0)  -->
<svg version="1.1" id="Слой_1" xmlns="http://www.w3.org/2000/svg" xmlns:xlink="http://www.w3.org/1999/xlink" x="0px" y="0px"
	 viewBox="0 0 2697.47 1517.33" style="enable-background:new 0 0 2697.47 1517.33;" xml:space="preserve">
<style type="text/css">
	.st0{fill:#E50101;}
	.st1{fill:#FFFFFF;}
	.st2{fill:#B20404;}
	.st3{fill:#CECECE;}
</style>
<path class="st0" d="M1793.41,373.06c-37.33,4.93-73.15,14.65-106.81,28.52c2.42,6.44,3.76,13.4,3.76,20.69
	c0,32.42-26.28,58.7-58.7,58.7c-18.17,0-34.4-8.26-45.17-21.22c-25.08,19.52-47.91,41.76-68.11,66.27
	c-41.32,2.44-105.79,20.98-105.79,20.98l81.76,10.48l0.54-0.17c-0.06,0.09-0.13,0.19-0.2,0.28l176.9,31.69
	c45.72-39.06,104.38-63.39,168.66-65.68V418.18C1816.96,413.98,1798.46,396.04,1793.41,373.06z"/>
<path class="st1" d="M1677.06,1012.39l-200.06-0.08c0.02,0.03,0.03,0.05,0.05,0.08H421l1101.76,65.02l0.02-0.02
	c19.17,22.53,40.6,43.08,63.98,61.25c10.71-14.28,27.77-23.53,47-23.53c32.42,0,58.7,26.28,58.7,58.7c0,8.25-1.71,16.1-4.79,23.23
	c32.78,13.4,67.59,22.87,103.83,27.82c3.35-25.7,23.31-46.16,48.75-50.28v-101.07C1778.51,1071.32,1721.95,1048.78,1677.06,1012.39z
	"/>
<path class="st0" d="M2125.36,798.56h100.63c0-29.47,21.72-53.86,50.02-58.05c-4.93-36.15-14.35-70.87-27.68-103.58
	c-6.89,2.84-14.42,4.41-22.33,4.41c-32.42,0-58.7-26.28-58.7-58.7c0-18.93,8.97-35.75,22.88-46.48
	c-23.18-29.93-50.22-56.71-80.39-79.6c-10.77,12.99-27.02,21.27-45.21,21.27c-32.42,0-58.7-26.28-58.7-58.7
	c0-6.81,1.17-13.34,3.31-19.43c-32-12.75-65.9-21.76-101.15-26.5c-5.09,22.92-23.57,40.8-46.81,44.99v105.47
	C2008.07,529.43,2125.36,650.29,2125.36,798.56z"/>
<path class="st1" d="M2229.84,819.53h-105.27c-10.44,138.55-123.48,248.44-263.35,253.95v101.48c24.48,4.88,43.47,24.99,46.67,50.04
	c36.29-4.87,71.14-14.26,103.97-27.6c-3.17-7.22-4.95-15.19-4.95-23.59c0-32.42,26.28-58.7,58.7-58.7
	c19.46,0,36.69,9.47,47.37,24.05c29.09-22.51,55.21-48.67,77.68-77.79c-14.2-10.71-23.38-27.72-23.38-46.88
	c0-32.42,26.28-58.7,58.7-58.7c8.05,0,15.71,1.62,22.7,4.55c13.27-32.76,22.61-67.52,27.46-103.71
	C2254.87,853.53,2237.3,839.03,2229.84,819.53z"/>
<path class="st2" d="M1861.22,465.3v58.9c146.9,6.02,264.14,126.55,264.14,274.37h59.69c0.02-1.57,0.06-3.14,0.06-4.72
	C2185.11,613.94,2040.52,467.82,1861.22,465.3z"/>
<path class="st3" d="M2124.57,819.53c-10.46,138.1-123.46,247.67-263.35,253.41v49.46c170.69-2.41,309.91-134.93,322.9-302.87
	H2124.57z"/>
<path class="st3" d="M1611.13,1012.39c56.82,63.75,138.1,105.23,229.12,109.66v-49.04c-61.84-2.07-118.51-24.44-163.52-60.62
	H1611.13z"/>
<path class="st2" d="M1608.72,578l62.55,11.22c45.85-38.82,104.62-62.95,168.98-65.11v-58.47
	C1747.95,470.14,1665.64,512.72,1608.72,578z"/>
<path class="st0" d="M1234.4,573.2c0.52,0.52-168.23-2.62-359.01,147.27c0,0-325.99,2.1-454.39,148.32
	c0,0,184.48-126.83,425.57-67.08c0,0,208.59-126.83,492.65-36.69l-23.06,28.3c0,0,297.69-142.55,610.05-112.16
	C1926.2,681.17,1488.06,565.86,1234.4,573.2z M1376.43,727.81c0,0-327.04-44.02-452.82-7.34c0,0,155.13-142.55,365.82-106.92
	c210.69,35.64,256.81,50.31,256.81,50.31S1433.03,735.15,1376.43,727.81z"/>
<path class="st1" d="M2001.67,840.49c0,0-17.82-51.36-57.65-92.24c0,0-1.05-32.49,9.43-42.98c0,0-267.29-39.83-567.07,103.77
	C1386.38,809.05,1778.93,640.81,2001.67,840.49z"/>
<path class="st1" d="M443.68,987.21v-20.42v-90.89h20.31v90.89h70.59v20.42h-70.59H443.68z"/>
<path class="st1" d="M635.56,987.21h-75.03h-20.42v-20.42V941.7v-20.42V896.2v-20.31h80.35h15.09v20.31h-15.09h-59.93v25.08h65.15
	v20.42h-65.15v25.08h59.93h15.09V987.21z"/>
<path class="st1" d="M685.94,921.28h30.41h5.11h20.42v20.42v14.65v13.43c0,9.54-7.88,17.42-17.42,17.42h-63.04h-2.89
	c-9.54,0-17.42-7.77-17.42-17.31v-0.11v-76.69c0-9.43,7.88-17.2,17.42-17.2h2.89h60.04h3c2.11,0,4.33,0.44,6.21,1.11
	c6.55,2.55,11.21,8.88,11.21,16.31v13.32h-20.42V896.2h-60.04v70.59v3h60.04v-3v-10.43V941.7h-5.11h-30.41V921.28z"/>
<path class="st1" d="M842.86,987.21h-75.03h-20.42v-20.42V941.7v-20.42V896.2v-20.31h80.35h15.09v20.31h-15.09h-59.93v25.08h65.15
	v20.42h-65.15v25.08h59.93h15.09V987.21z"/>
<path class="st1" d="M949.18,983.77v3.44h-4.33H929.2l-0.33-0.55l-60.04-77.24v77.8h-20.42V883.21v-7.33h20.09l0.33,0.33
	l60.04,77.24v-77.58h20.31v103.77V983.77z"/>
<path class="st1" d="M954.72,875.89h20.42h60.04h2.89c9.54,0,17.42,7.77,17.42,17.2v0.22v27.97v20.42v28.19
	c0,9.54-7.88,17.31-17.42,17.31h-2.89h-60.04h-20.42v-30.85V941.7v-20.42v-14.65V875.89z M975.14,941.7v14.65v10.43h60.04V941.7
	v-20.42V896.2h-60.04v10.43v14.65V941.7z"/>
<path class="st0" d="M1120.3,948.14v18.65v20.42h-20.42v-45.5v-20.42v-27.97c0-9.66,7.88-17.42,17.42-17.42h3h60.04h2.88
	c9.66,0,17.42,7.77,17.42,17.42v27.97v20.42v45.5h-20.31v-20.42v-18.65H1120.3z M1120.3,896.2v25.08v6.55h60.04v-6.55V896.2H1120.3z
	"/>
<path class="st0" d="M1286.55,937.93v-13.32V896.2v-20.31h3h17.42v17.42v44.62v31.85c0,9.54-7.88,17.42-17.42,17.42h-65.92
	c-9.65,0-17.42-7.88-17.42-17.42v-31.52v-44.95v-17.42h17.42h2.89v20.31v28.41v13.65v28.52h60.04V937.93z"/>
<path class="st0" d="M1312.51,896.2v-20.31h60.6h40.18v20.31h-40.18v91.01h-20.42V896.2H1312.51z"/>
<path class="st0" d="M1519.6,893.31v76.47c0,9.54-7.88,17.42-17.42,17.42h-65.92c-9.54,0-17.42-7.88-17.42-17.42v-76.47
	c0-9.66,7.88-17.42,17.42-17.42h65.92C1511.72,875.89,1519.6,883.66,1519.6,893.31z M1499.18,896.2h-60.04v70.59h60.04V896.2z"/>
<path class="st1" d="M1639.12,987.21l-34.96-45.5l-1-1.22l-1,1.22l-17.76,19.64v25.86h-20.42v-3.33v-30.41V941.7v-20.42v-45.39
	h20.42v16.09v24.08v5.22v9.66l6.21-6.88l2.44-2.78l11.43-12.54l29.74-32.85h10.21h17.2l-17.2,18.98l-23.86,26.41l-3.44,3.88
	l12.65,16.54l14.65,18.98l20.31,26.53h-20.31H1639.12z"/>
<path class="st1" d="M1715.14,921.28h30.41h5.11h20.42v20.42v14.65v13.43c0,9.54-7.88,17.42-17.42,17.42h-63.04h-2.89
	c-9.54,0-17.42-7.77-17.42-17.31v-0.11v-76.69c0-9.43,7.88-17.2,17.42-17.2h2.89h60.04h3c2.11,0,4.33,0.44,6.22,1.11
	c6.55,2.55,11.21,8.88,11.21,16.31v13.32h-20.42V896.2h-60.04v70.59v3h60.04v-3v-10.43V941.7h-5.11h-30.41V921.28z"/>
<rect x="1065" y="964" class="st1" width="23" height="23"/>
<rect x="1530.3" y="964" class="st1" width="23" height="23"/>
</svg>
